<mxfile host="Electron" agent="Mozilla/5.0 (Windows NT 10.0; Win64; x64) AppleWebKit/537.36 (KHTML, like Gecko) draw.io/24.7.17 Chrome/128.0.6613.36 Electron/32.0.1 Safari/537.36" version="24.7.17">
  <diagram name="Страница — 1" id="1cSsIdaJOo9Q6PnTaS0a">
    <mxGraphModel dx="1782" dy="1741" grid="1" gridSize="10" guides="1" tooltips="1" connect="1" arrows="1" fold="1" page="1" pageScale="1" pageWidth="827" pageHeight="1169" math="0" shadow="0">
      <root>
        <mxCell id="0" />
        <mxCell id="1" parent="0" />
        <mxCell id="v1l3gSPfmKun_IUH_ubJ-33" style="edgeStyle=none;shape=connector;rounded=0;orthogonalLoop=1;jettySize=auto;html=1;strokeColor=default;align=center;verticalAlign=middle;fontFamily=Helvetica;fontSize=11;fontColor=default;labelBackgroundColor=default;endArrow=none;endFill=0;" parent="1" source="v1l3gSPfmKun_IUH_ubJ-1" target="v1l3gSPfmKun_IUH_ubJ-32" edge="1">
          <mxGeometry relative="1" as="geometry" />
        </mxCell>
        <mxCell id="v1l3gSPfmKun_IUH_ubJ-35" style="edgeStyle=none;shape=connector;rounded=0;orthogonalLoop=1;jettySize=auto;html=1;strokeColor=default;align=center;verticalAlign=middle;fontFamily=Helvetica;fontSize=11;fontColor=default;labelBackgroundColor=default;endArrow=none;endFill=0;" parent="1" source="v1l3gSPfmKun_IUH_ubJ-1" target="v1l3gSPfmKun_IUH_ubJ-34" edge="1">
          <mxGeometry relative="1" as="geometry" />
        </mxCell>
        <mxCell id="v1l3gSPfmKun_IUH_ubJ-59" style="edgeStyle=none;shape=connector;rounded=0;orthogonalLoop=1;jettySize=auto;html=1;strokeColor=default;align=center;verticalAlign=middle;fontFamily=Helvetica;fontSize=11;fontColor=default;labelBackgroundColor=default;endArrow=none;endFill=0;" parent="1" source="v1l3gSPfmKun_IUH_ubJ-1" target="v1l3gSPfmKun_IUH_ubJ-58" edge="1">
          <mxGeometry relative="1" as="geometry" />
        </mxCell>
        <mxCell id="v1l3gSPfmKun_IUH_ubJ-65" style="edgeStyle=none;shape=connector;rounded=0;orthogonalLoop=1;jettySize=auto;html=1;strokeColor=default;align=center;verticalAlign=middle;fontFamily=Helvetica;fontSize=11;fontColor=default;labelBackgroundColor=default;endArrow=none;endFill=0;" parent="1" source="v1l3gSPfmKun_IUH_ubJ-1" target="v1l3gSPfmKun_IUH_ubJ-37" edge="1">
          <mxGeometry relative="1" as="geometry" />
        </mxCell>
        <mxCell id="v1l3gSPfmKun_IUH_ubJ-77" style="edgeStyle=none;shape=connector;rounded=0;orthogonalLoop=1;jettySize=auto;html=1;strokeColor=default;align=center;verticalAlign=middle;fontFamily=Helvetica;fontSize=11;fontColor=default;labelBackgroundColor=default;endArrow=none;endFill=0;" parent="1" source="v1l3gSPfmKun_IUH_ubJ-1" target="v1l3gSPfmKun_IUH_ubJ-76" edge="1">
          <mxGeometry relative="1" as="geometry" />
        </mxCell>
        <mxCell id="v1l3gSPfmKun_IUH_ubJ-91" style="edgeStyle=none;shape=connector;rounded=0;orthogonalLoop=1;jettySize=auto;html=1;strokeColor=default;align=center;verticalAlign=middle;fontFamily=Helvetica;fontSize=11;fontColor=default;labelBackgroundColor=default;endArrow=none;endFill=0;" parent="1" source="v1l3gSPfmKun_IUH_ubJ-1" target="v1l3gSPfmKun_IUH_ubJ-90" edge="1">
          <mxGeometry relative="1" as="geometry" />
        </mxCell>
        <mxCell id="v1l3gSPfmKun_IUH_ubJ-1" value="PublishingHouse" style="shape=umlActor;verticalLabelPosition=bottom;verticalAlign=top;html=1;outlineConnect=0;" parent="1" vertex="1">
          <mxGeometry x="210" y="30" width="30" height="60" as="geometry" />
        </mxCell>
        <mxCell id="v1l3gSPfmKun_IUH_ubJ-31" style="edgeStyle=none;shape=connector;rounded=0;orthogonalLoop=1;jettySize=auto;html=1;strokeColor=default;align=center;verticalAlign=middle;fontFamily=Helvetica;fontSize=11;fontColor=default;labelBackgroundColor=default;endArrow=none;endFill=0;" parent="1" source="v1l3gSPfmKun_IUH_ubJ-2" target="v1l3gSPfmKun_IUH_ubJ-30" edge="1">
          <mxGeometry relative="1" as="geometry" />
        </mxCell>
        <mxCell id="v1l3gSPfmKun_IUH_ubJ-87" style="edgeStyle=none;shape=connector;rounded=0;orthogonalLoop=1;jettySize=auto;html=1;strokeColor=default;align=center;verticalAlign=middle;fontFamily=Helvetica;fontSize=11;fontColor=default;labelBackgroundColor=default;endArrow=none;endFill=0;" parent="1" source="v1l3gSPfmKun_IUH_ubJ-2" target="v1l3gSPfmKun_IUH_ubJ-86" edge="1">
          <mxGeometry relative="1" as="geometry" />
        </mxCell>
        <mxCell id="v1l3gSPfmKun_IUH_ubJ-102" style="edgeStyle=none;shape=connector;rounded=0;orthogonalLoop=1;jettySize=auto;html=1;strokeColor=default;align=center;verticalAlign=middle;fontFamily=Helvetica;fontSize=11;fontColor=default;labelBackgroundColor=default;endArrow=none;endFill=0;" parent="1" source="v1l3gSPfmKun_IUH_ubJ-2" target="v1l3gSPfmKun_IUH_ubJ-41" edge="1">
          <mxGeometry relative="1" as="geometry" />
        </mxCell>
        <mxCell id="v1l3gSPfmKun_IUH_ubJ-120" style="edgeStyle=none;shape=connector;rounded=0;orthogonalLoop=1;jettySize=auto;html=1;strokeColor=default;align=center;verticalAlign=middle;fontFamily=Helvetica;fontSize=11;fontColor=default;labelBackgroundColor=default;endArrow=none;endFill=0;" parent="1" source="v1l3gSPfmKun_IUH_ubJ-2" target="v1l3gSPfmKun_IUH_ubJ-119" edge="1">
          <mxGeometry relative="1" as="geometry" />
        </mxCell>
        <mxCell id="v1l3gSPfmKun_IUH_ubJ-2" value="Library" style="shape=umlActor;verticalLabelPosition=bottom;verticalAlign=top;html=1;outlineConnect=0;" parent="1" vertex="1">
          <mxGeometry x="90" y="290" width="30" height="60" as="geometry" />
        </mxCell>
        <mxCell id="v1l3gSPfmKun_IUH_ubJ-18" style="rounded=0;orthogonalLoop=1;jettySize=auto;html=1;endArrow=block;endFill=0;" parent="1" source="v1l3gSPfmKun_IUH_ubJ-5" target="v1l3gSPfmKun_IUH_ubJ-1" edge="1">
          <mxGeometry relative="1" as="geometry" />
        </mxCell>
        <mxCell id="v1l3gSPfmKun_IUH_ubJ-19" style="edgeStyle=none;shape=connector;rounded=0;orthogonalLoop=1;jettySize=auto;html=1;strokeColor=default;align=center;verticalAlign=middle;fontFamily=Helvetica;fontSize=11;fontColor=default;labelBackgroundColor=default;endArrow=block;endFill=0;" parent="1" source="v1l3gSPfmKun_IUH_ubJ-5" target="v1l3gSPfmKun_IUH_ubJ-2" edge="1">
          <mxGeometry relative="1" as="geometry" />
        </mxCell>
        <mxCell id="v1l3gSPfmKun_IUH_ubJ-23" style="edgeStyle=none;shape=connector;rounded=0;orthogonalLoop=1;jettySize=auto;html=1;strokeColor=default;align=center;verticalAlign=middle;fontFamily=Helvetica;fontSize=11;fontColor=default;labelBackgroundColor=default;endArrow=none;endFill=0;" parent="1" source="v1l3gSPfmKun_IUH_ubJ-5" target="v1l3gSPfmKun_IUH_ubJ-22" edge="1">
          <mxGeometry relative="1" as="geometry" />
        </mxCell>
        <mxCell id="v1l3gSPfmKun_IUH_ubJ-61" style="edgeStyle=none;shape=connector;rounded=0;orthogonalLoop=1;jettySize=auto;html=1;strokeColor=default;align=center;verticalAlign=middle;fontFamily=Helvetica;fontSize=11;fontColor=default;labelBackgroundColor=default;endArrow=none;endFill=0;" parent="1" source="v1l3gSPfmKun_IUH_ubJ-5" target="v1l3gSPfmKun_IUH_ubJ-60" edge="1">
          <mxGeometry relative="1" as="geometry" />
        </mxCell>
        <mxCell id="raZF7uwLVwhogA-u9e-4-4" style="rounded=0;orthogonalLoop=1;jettySize=auto;html=1;endArrow=none;endFill=0;" edge="1" parent="1" source="v1l3gSPfmKun_IUH_ubJ-5" target="v1l3gSPfmKun_IUH_ubJ-110">
          <mxGeometry relative="1" as="geometry" />
        </mxCell>
        <mxCell id="v1l3gSPfmKun_IUH_ubJ-5" value="Company" style="shape=umlActor;verticalLabelPosition=bottom;verticalAlign=top;html=1;outlineConnect=0;" parent="1" vertex="1">
          <mxGeometry x="10" y="190" width="30" height="60" as="geometry" />
        </mxCell>
        <mxCell id="v1l3gSPfmKun_IUH_ubJ-55" style="edgeStyle=none;shape=connector;rounded=0;orthogonalLoop=1;jettySize=auto;html=1;strokeColor=default;align=center;verticalAlign=middle;fontFamily=Helvetica;fontSize=11;fontColor=default;labelBackgroundColor=default;endArrow=none;endFill=0;" parent="1" source="v1l3gSPfmKun_IUH_ubJ-9" target="v1l3gSPfmKun_IUH_ubJ-54" edge="1">
          <mxGeometry relative="1" as="geometry" />
        </mxCell>
        <mxCell id="v1l3gSPfmKun_IUH_ubJ-62" style="edgeStyle=none;shape=connector;rounded=0;orthogonalLoop=1;jettySize=auto;html=1;strokeColor=default;align=center;verticalAlign=middle;fontFamily=Helvetica;fontSize=11;fontColor=default;labelBackgroundColor=default;endArrow=none;endFill=0;" parent="1" source="v1l3gSPfmKun_IUH_ubJ-9" target="v1l3gSPfmKun_IUH_ubJ-56" edge="1">
          <mxGeometry relative="1" as="geometry" />
        </mxCell>
        <mxCell id="v1l3gSPfmKun_IUH_ubJ-9" value="Author" style="shape=umlActor;verticalLabelPosition=bottom;verticalAlign=top;html=1;outlineConnect=0;" parent="1" vertex="1">
          <mxGeometry x="-470" y="70" width="30" height="60" as="geometry" />
        </mxCell>
        <mxCell id="v1l3gSPfmKun_IUH_ubJ-27" style="edgeStyle=none;shape=connector;rounded=0;orthogonalLoop=1;jettySize=auto;html=1;strokeColor=default;align=center;verticalAlign=middle;fontFamily=Helvetica;fontSize=11;fontColor=default;labelBackgroundColor=default;endArrow=none;endFill=0;" parent="1" source="v1l3gSPfmKun_IUH_ubJ-13" target="v1l3gSPfmKun_IUH_ubJ-25" edge="1">
          <mxGeometry relative="1" as="geometry" />
        </mxCell>
        <mxCell id="v1l3gSPfmKun_IUH_ubJ-13" value="Employee" style="shape=umlActor;verticalLabelPosition=bottom;verticalAlign=top;html=1;outlineConnect=0;" parent="1" vertex="1">
          <mxGeometry x="1390" y="260" width="30" height="60" as="geometry" />
        </mxCell>
        <mxCell id="v1l3gSPfmKun_IUH_ubJ-47" style="edgeStyle=none;shape=connector;rounded=0;orthogonalLoop=1;jettySize=auto;html=1;strokeColor=default;align=center;verticalAlign=middle;fontFamily=Helvetica;fontSize=11;fontColor=default;labelBackgroundColor=default;endArrow=none;endFill=0;" parent="1" source="v1l3gSPfmKun_IUH_ubJ-16" target="v1l3gSPfmKun_IUH_ubJ-46" edge="1">
          <mxGeometry relative="1" as="geometry" />
        </mxCell>
        <mxCell id="v1l3gSPfmKun_IUH_ubJ-53" style="edgeStyle=none;shape=connector;rounded=0;orthogonalLoop=1;jettySize=auto;html=1;strokeColor=default;align=center;verticalAlign=middle;fontFamily=Helvetica;fontSize=11;fontColor=default;labelBackgroundColor=default;endArrow=none;endFill=0;" parent="1" source="v1l3gSPfmKun_IUH_ubJ-16" target="v1l3gSPfmKun_IUH_ubJ-52" edge="1">
          <mxGeometry relative="1" as="geometry" />
        </mxCell>
        <mxCell id="v1l3gSPfmKun_IUH_ubJ-125" style="edgeStyle=none;shape=connector;rounded=0;orthogonalLoop=1;jettySize=auto;html=1;strokeColor=default;align=center;verticalAlign=middle;fontFamily=Helvetica;fontSize=11;fontColor=default;labelBackgroundColor=default;endArrow=none;endFill=0;" parent="1" source="v1l3gSPfmKun_IUH_ubJ-16" target="v1l3gSPfmKun_IUH_ubJ-124" edge="1">
          <mxGeometry relative="1" as="geometry" />
        </mxCell>
        <mxCell id="v1l3gSPfmKun_IUH_ubJ-16" value="ClientLib" style="shape=umlActor;verticalLabelPosition=bottom;verticalAlign=top;html=1;outlineConnect=0;" parent="1" vertex="1">
          <mxGeometry x="470" y="890" width="30" height="60" as="geometry" />
        </mxCell>
        <mxCell id="v1l3gSPfmKun_IUH_ubJ-22" value="PayToEmployees()&amp;nbsp;&lt;div&gt;Выплатить зарплату всем работникам&lt;/div&gt;" style="ellipse;whiteSpace=wrap;html=1;fontFamily=Helvetica;fontSize=11;fontColor=default;labelBackgroundColor=default;" parent="1" vertex="1">
          <mxGeometry x="100" y="140" width="210" height="100" as="geometry" />
        </mxCell>
        <mxCell id="v1l3gSPfmKun_IUH_ubJ-25" value="DoWork()&lt;div&gt;Выполняет задачи в соответствии с должностью&lt;/div&gt;" style="ellipse;whiteSpace=wrap;html=1;fontFamily=Helvetica;fontSize=11;fontColor=default;labelBackgroundColor=default;" parent="1" vertex="1">
          <mxGeometry x="1252.5" y="90" width="305" height="50" as="geometry" />
        </mxCell>
        <mxCell id="v1l3gSPfmKun_IUH_ubJ-98" style="edgeStyle=none;shape=connector;rounded=0;orthogonalLoop=1;jettySize=auto;html=1;dashed=1;dashPattern=8 8;strokeColor=default;align=center;verticalAlign=middle;fontFamily=Helvetica;fontSize=11;fontColor=default;labelBackgroundColor=default;endArrow=openThin;endFill=0;" parent="1" source="v1l3gSPfmKun_IUH_ubJ-30" target="v1l3gSPfmKun_IUH_ubJ-90" edge="1">
          <mxGeometry relative="1" as="geometry" />
        </mxCell>
        <mxCell id="v1l3gSPfmKun_IUH_ubJ-101" value="Include" style="edgeLabel;html=1;align=center;verticalAlign=middle;resizable=0;points=[];fontFamily=Helvetica;fontSize=11;fontColor=default;labelBackgroundColor=default;" parent="v1l3gSPfmKun_IUH_ubJ-98" vertex="1" connectable="0">
          <mxGeometry x="-0.0209" y="1" relative="1" as="geometry">
            <mxPoint as="offset" />
          </mxGeometry>
        </mxCell>
        <mxCell id="v1l3gSPfmKun_IUH_ubJ-30" value="&lt;span style=&quot;font-size: 12px; text-align: left; text-wrap: nowrap; background-color: rgb(251, 251, 251);&quot;&gt;+GainBooks(&lt;/span&gt;&lt;br style=&quot;font-size: 12px; text-align: left; text-wrap: nowrap; padding: 0px; margin: 0px; background-color: rgb(251, 251, 251);&quot;&gt;&lt;span style=&quot;font-size: 12px; text-align: left; text-wrap: nowrap; background-color: rgb(251, 251, 251);&quot;&gt;*Company, arr[*book])&lt;/span&gt;&lt;div&gt;&lt;span style=&quot;font-size: 12px; text-align: left; text-wrap: nowrap; background-color: rgb(251, 251, 251);&quot;&gt;Получить запрошенные у компании&lt;/span&gt;&lt;/div&gt;&lt;div&gt;&lt;span style=&quot;font-size: 12px; text-align: left; text-wrap: nowrap; background-color: rgb(251, 251, 251);&quot;&gt;книги во владение&lt;/span&gt;&lt;/div&gt;" style="ellipse;whiteSpace=wrap;html=1;fontFamily=Helvetica;fontSize=11;fontColor=default;labelBackgroundColor=default;" parent="1" vertex="1">
          <mxGeometry x="280" y="460" width="240" height="110" as="geometry" />
        </mxCell>
        <mxCell id="v1l3gSPfmKun_IUH_ubJ-32" value="&lt;span style=&quot;font-size: 12px; text-align: left; text-wrap: nowrap; background-color: rgb(251, 251, 251);&quot;&gt;+CreateNumberOfBooks&lt;/span&gt;&lt;br style=&quot;padding: 0px; margin: 0px; font-size: 12px; text-align: left; text-wrap: nowrap; background-color: rgb(251, 251, 251);&quot;&gt;&lt;span style=&quot;font-size: 12px; text-align: left; text-wrap: nowrap; background-color: rgb(251, 251, 251);&quot;&gt;(arr[pair&amp;lt;*book, in&amp;gt;])&lt;/span&gt;&lt;br&gt;&lt;div&gt;&lt;span style=&quot;font-size: 12px; text-align: left; text-wrap: nowrap; background-color: rgb(251, 251, 251);&quot;&gt;Создает книги в определенном количестве&lt;/span&gt;&lt;/div&gt;" style="ellipse;whiteSpace=wrap;html=1;fontFamily=Helvetica;fontSize=11;fontColor=default;labelBackgroundColor=default;" parent="1" vertex="1">
          <mxGeometry x="40" y="-160" width="270" height="110" as="geometry" />
        </mxCell>
        <mxCell id="v1l3gSPfmKun_IUH_ubJ-68" style="edgeStyle=none;shape=connector;rounded=0;orthogonalLoop=1;jettySize=auto;html=1;dashed=1;dashPattern=8 8;strokeColor=default;align=center;verticalAlign=middle;fontFamily=Helvetica;fontSize=11;fontColor=default;labelBackgroundColor=default;endArrow=openThin;endFill=0;" parent="1" source="v1l3gSPfmKun_IUH_ubJ-34" target="v1l3gSPfmKun_IUH_ubJ-58" edge="1">
          <mxGeometry relative="1" as="geometry" />
        </mxCell>
        <mxCell id="v1l3gSPfmKun_IUH_ubJ-69" value="Extend" style="edgeLabel;html=1;align=center;verticalAlign=middle;resizable=0;points=[];fontFamily=Helvetica;fontSize=11;fontColor=default;labelBackgroundColor=default;" parent="v1l3gSPfmKun_IUH_ubJ-68" vertex="1" connectable="0">
          <mxGeometry x="-0.0205" y="-1" relative="1" as="geometry">
            <mxPoint as="offset" />
          </mxGeometry>
        </mxCell>
        <mxCell id="v1l3gSPfmKun_IUH_ubJ-108" style="edgeStyle=none;shape=connector;rounded=0;orthogonalLoop=1;jettySize=auto;html=1;dashed=1;dashPattern=8 8;strokeColor=default;align=center;verticalAlign=middle;fontFamily=Helvetica;fontSize=11;fontColor=default;labelBackgroundColor=default;endArrow=openThin;endFill=0;" parent="1" source="v1l3gSPfmKun_IUH_ubJ-34" target="v1l3gSPfmKun_IUH_ubJ-37" edge="1">
          <mxGeometry relative="1" as="geometry" />
        </mxCell>
        <mxCell id="v1l3gSPfmKun_IUH_ubJ-109" value="Extend" style="edgeLabel;html=1;align=center;verticalAlign=middle;resizable=0;points=[];fontFamily=Helvetica;fontSize=11;fontColor=default;labelBackgroundColor=default;" parent="v1l3gSPfmKun_IUH_ubJ-108" vertex="1" connectable="0">
          <mxGeometry x="-0.0057" y="-1" relative="1" as="geometry">
            <mxPoint as="offset" />
          </mxGeometry>
        </mxCell>
        <mxCell id="v1l3gSPfmKun_IUH_ubJ-34" value="&lt;span style=&quot;font-size: 12px; text-align: left; text-wrap: nowrap; background-color: rgb(251, 251, 251);&quot;&gt;+SaleBooksToCompany(&lt;/span&gt;&lt;br style=&quot;padding: 0px; margin: 0px; font-size: 12px; text-align: left; text-wrap: nowrap; background-color: rgb(251, 251, 251);&quot;&gt;&lt;span style=&quot;font-size: 12px; text-align: left; text-wrap: nowrap; background-color: rgb(251, 251, 251);&quot;&gt;*Company, arr[*book])&lt;/span&gt;&lt;br&gt;&lt;div&gt;&lt;span style=&quot;font-size: 12px; text-align: left; text-wrap: nowrap; background-color: rgb(251, 251, 251);&quot;&gt;Продает книги компании&lt;/span&gt;&lt;/div&gt;" style="ellipse;whiteSpace=wrap;html=1;fontFamily=Helvetica;fontSize=11;fontColor=default;labelBackgroundColor=default;" parent="1" vertex="1">
          <mxGeometry x="655" y="-110" width="170" height="100" as="geometry" />
        </mxCell>
        <mxCell id="v1l3gSPfmKun_IUH_ubJ-37" value="&lt;span style=&quot;font-size: 12px; text-align: left; text-wrap: nowrap; background-color: rgb(251, 251, 251);&quot;&gt;+OfferBooksToCompany(&lt;/span&gt;&lt;br style=&quot;padding: 0px; margin: 0px; font-size: 12px; text-align: left; text-wrap: nowrap; background-color: rgb(251, 251, 251);&quot;&gt;&lt;span style=&quot;font-size: 12px; text-align: left; text-wrap: nowrap; background-color: rgb(251, 251, 251);&quot;&gt;*Company, arr[*book])&lt;/span&gt;&lt;br&gt;&lt;div&gt;&lt;span style=&quot;font-size: 12px; text-align: left; text-wrap: nowrap; background-color: rgb(251, 251, 251);&quot;&gt;Предлагает компании купить книги&lt;/span&gt;&lt;/div&gt;" style="ellipse;whiteSpace=wrap;html=1;fontFamily=Helvetica;fontSize=11;fontColor=default;labelBackgroundColor=default;" parent="1" vertex="1">
          <mxGeometry x="400" y="50" width="270" height="70" as="geometry" />
        </mxCell>
        <mxCell id="raZF7uwLVwhogA-u9e-4-10" style="edgeStyle=none;shape=connector;rounded=0;orthogonalLoop=1;jettySize=auto;html=1;dashed=1;dashPattern=8 8;strokeColor=default;align=center;verticalAlign=middle;fontFamily=Helvetica;fontSize=11;fontColor=default;labelBackgroundColor=default;endArrow=openThin;endFill=0;" edge="1" parent="1" source="v1l3gSPfmKun_IUH_ubJ-41" target="v1l3gSPfmKun_IUH_ubJ-58">
          <mxGeometry relative="1" as="geometry" />
        </mxCell>
        <mxCell id="raZF7uwLVwhogA-u9e-4-11" value="include" style="edgeLabel;html=1;align=center;verticalAlign=middle;resizable=0;points=[];fontFamily=Helvetica;fontSize=11;fontColor=default;labelBackgroundColor=default;" vertex="1" connectable="0" parent="raZF7uwLVwhogA-u9e-4-10">
          <mxGeometry x="-0.0124" y="3" relative="1" as="geometry">
            <mxPoint as="offset" />
          </mxGeometry>
        </mxCell>
        <mxCell id="v1l3gSPfmKun_IUH_ubJ-41" value="&lt;span style=&quot;font-size: 12px; text-align: left; text-wrap: nowrap; background-color: rgb(251, 251, 251);&quot;&gt;+RequestBooks(&lt;/span&gt;&lt;br style=&quot;font-size: 12px; text-align: left; text-wrap: nowrap; padding: 0px; margin: 0px; background-color: rgb(251, 251, 251);&quot;&gt;&lt;span style=&quot;font-size: 12px; text-align: left; text-wrap: nowrap; background-color: rgb(251, 251, 251);&quot;&gt;*Company, arr[*book])&lt;/span&gt;&lt;div&gt;&lt;span style=&quot;font-size: 12px; text-align: left; text-wrap: nowrap; background-color: rgb(251, 251, 251);&quot;&gt;Запросить книги у&amp;nbsp;&lt;/span&gt;&lt;/div&gt;&lt;div&gt;&lt;span style=&quot;font-size: 12px; text-align: left; text-wrap: nowrap; background-color: rgb(251, 251, 251);&quot;&gt;компании&lt;/span&gt;&lt;/div&gt;" style="ellipse;whiteSpace=wrap;html=1;fontFamily=Helvetica;fontSize=11;fontColor=default;labelBackgroundColor=default;" parent="1" vertex="1">
          <mxGeometry x="310" y="330" width="140" height="110" as="geometry" />
        </mxCell>
        <mxCell id="v1l3gSPfmKun_IUH_ubJ-49" style="edgeStyle=none;shape=connector;rounded=0;orthogonalLoop=1;jettySize=auto;html=1;dashed=1;dashPattern=8 8;strokeColor=default;align=center;verticalAlign=middle;fontFamily=Helvetica;fontSize=11;fontColor=default;labelBackgroundColor=default;endArrow=openThin;endFill=0;" parent="1" source="v1l3gSPfmKun_IUH_ubJ-46" target="v1l3gSPfmKun_IUH_ubJ-86" edge="1">
          <mxGeometry relative="1" as="geometry" />
        </mxCell>
        <mxCell id="v1l3gSPfmKun_IUH_ubJ-51" value="Include" style="edgeLabel;html=1;align=center;verticalAlign=middle;resizable=0;points=[];fontFamily=Helvetica;fontSize=11;fontColor=default;labelBackgroundColor=default;" parent="v1l3gSPfmKun_IUH_ubJ-49" vertex="1" connectable="0">
          <mxGeometry x="-0.0208" y="-3" relative="1" as="geometry">
            <mxPoint as="offset" />
          </mxGeometry>
        </mxCell>
        <mxCell id="raZF7uwLVwhogA-u9e-4-8" style="edgeStyle=none;shape=connector;rounded=0;orthogonalLoop=1;jettySize=auto;html=1;dashed=1;dashPattern=8 8;strokeColor=default;align=center;verticalAlign=middle;fontFamily=Helvetica;fontSize=11;fontColor=default;labelBackgroundColor=default;endArrow=openThin;endFill=0;" edge="1" parent="1" source="v1l3gSPfmKun_IUH_ubJ-46" target="v1l3gSPfmKun_IUH_ubJ-48">
          <mxGeometry relative="1" as="geometry" />
        </mxCell>
        <mxCell id="raZF7uwLVwhogA-u9e-4-9" value="Include" style="edgeLabel;html=1;align=center;verticalAlign=middle;resizable=0;points=[];fontFamily=Helvetica;fontSize=11;fontColor=default;labelBackgroundColor=default;" vertex="1" connectable="0" parent="raZF7uwLVwhogA-u9e-4-8">
          <mxGeometry x="-0.0172" y="2" relative="1" as="geometry">
            <mxPoint as="offset" />
          </mxGeometry>
        </mxCell>
        <mxCell id="v1l3gSPfmKun_IUH_ubJ-46" value="&lt;span style=&quot;font-size: 12px; text-align: left; text-wrap: nowrap; background-color: rgb(251, 251, 251);&quot;&gt;+TakeBook(Book book)&lt;/span&gt;&lt;div&gt;&lt;span style=&quot;font-size: 12px; text-align: left; text-wrap: nowrap; background-color: rgb(251, 251, 251);&quot;&gt;Взять запрошенную книгу&lt;/span&gt;&lt;/div&gt;" style="ellipse;whiteSpace=wrap;html=1;fontFamily=Helvetica;fontSize=11;fontColor=default;labelBackgroundColor=default;" parent="1" vertex="1">
          <mxGeometry x="170" y="845" width="150" height="130" as="geometry" />
        </mxCell>
        <mxCell id="raZF7uwLVwhogA-u9e-4-6" style="edgeStyle=none;shape=connector;rounded=0;orthogonalLoop=1;jettySize=auto;html=1;dashed=1;dashPattern=8 8;strokeColor=default;align=center;verticalAlign=middle;fontFamily=Helvetica;fontSize=11;fontColor=default;labelBackgroundColor=default;endArrow=openThin;endFill=0;" edge="1" parent="1" source="v1l3gSPfmKun_IUH_ubJ-48" target="v1l3gSPfmKun_IUH_ubJ-110">
          <mxGeometry relative="1" as="geometry" />
        </mxCell>
        <mxCell id="raZF7uwLVwhogA-u9e-4-7" value="Include" style="edgeLabel;html=1;align=center;verticalAlign=middle;resizable=0;points=[];fontFamily=Helvetica;fontSize=11;fontColor=default;labelBackgroundColor=default;" vertex="1" connectable="0" parent="raZF7uwLVwhogA-u9e-4-6">
          <mxGeometry x="-0.0035" y="-2" relative="1" as="geometry">
            <mxPoint as="offset" />
          </mxGeometry>
        </mxCell>
        <mxCell id="v1l3gSPfmKun_IUH_ubJ-48" value="&lt;span style=&quot;font-size: 12px; text-align: left; text-wrap: nowrap; background-color: rgb(251, 251, 251);&quot;&gt;+RequestBook(*Book book)&lt;/span&gt;&lt;div&gt;&lt;span style=&quot;font-size: 12px; text-align: left; text-wrap: nowrap; background-color: rgb(251, 251, 251);&quot;&gt;Запросить книгу&lt;/span&gt;&lt;/div&gt;" style="ellipse;whiteSpace=wrap;html=1;fontFamily=Helvetica;fontSize=11;fontColor=default;labelBackgroundColor=default;" parent="1" vertex="1">
          <mxGeometry x="-200" y="845" width="154" height="120" as="geometry" />
        </mxCell>
        <mxCell id="v1l3gSPfmKun_IUH_ubJ-52" value="&lt;span style=&quot;font-size: 12px; text-align: left; text-wrap: nowrap; background-color: rgb(251, 251, 251);&quot;&gt;+GiveBackBook(Book book)&lt;/span&gt;&lt;div&gt;&lt;span style=&quot;font-size: 12px; text-align: left; text-wrap: nowrap; background-color: rgb(251, 251, 251);&quot;&gt;Вернуть взятую книгу&lt;/span&gt;&lt;/div&gt;" style="ellipse;whiteSpace=wrap;html=1;fontFamily=Helvetica;fontSize=11;fontColor=default;labelBackgroundColor=default;" parent="1" vertex="1">
          <mxGeometry x="400" y="710" width="170" height="140" as="geometry" />
        </mxCell>
        <mxCell id="v1l3gSPfmKun_IUH_ubJ-54" value="&lt;span style=&quot;font-size: 12px; text-align: left; text-wrap: nowrap; background-color: rgb(251, 251, 251);&quot;&gt;+WritteBook()&lt;/span&gt;&lt;div&gt;&lt;span style=&quot;font-size: 12px; text-align: left; text-wrap: nowrap; background-color: rgb(251, 251, 251);&quot;&gt;Создает новую книгу&lt;/span&gt;&lt;/div&gt;" style="ellipse;whiteSpace=wrap;html=1;fontFamily=Helvetica;fontSize=11;fontColor=default;labelBackgroundColor=default;" parent="1" vertex="1">
          <mxGeometry x="-690" y="45" width="130" height="110" as="geometry" />
        </mxCell>
        <mxCell id="v1l3gSPfmKun_IUH_ubJ-80" style="edgeStyle=none;shape=connector;rounded=0;orthogonalLoop=1;jettySize=auto;html=1;dashed=1;dashPattern=8 8;strokeColor=default;align=center;verticalAlign=middle;fontFamily=Helvetica;fontSize=11;fontColor=default;labelBackgroundColor=default;endArrow=openThin;endFill=0;" parent="1" source="v1l3gSPfmKun_IUH_ubJ-56" target="v1l3gSPfmKun_IUH_ubJ-79" edge="1">
          <mxGeometry relative="1" as="geometry" />
        </mxCell>
        <mxCell id="v1l3gSPfmKun_IUH_ubJ-81" value="Include" style="edgeLabel;html=1;align=center;verticalAlign=middle;resizable=0;points=[];fontFamily=Helvetica;fontSize=11;fontColor=default;labelBackgroundColor=default;" parent="v1l3gSPfmKun_IUH_ubJ-80" vertex="1" connectable="0">
          <mxGeometry x="0.0413" y="1" relative="1" as="geometry">
            <mxPoint as="offset" />
          </mxGeometry>
        </mxCell>
        <mxCell id="v1l3gSPfmKun_IUH_ubJ-56" value="&lt;span style=&quot;font-size: 12px; text-align: left; text-wrap: nowrap; background-color: rgb(251, 251, 251);&quot;&gt;+BuildPartnership&lt;/span&gt;&lt;br style=&quot;padding: 0px; margin: 0px; font-size: 12px; text-align: left; text-wrap: nowrap; background-color: rgb(251, 251, 251);&quot;&gt;&lt;span style=&quot;font-size: 12px; text-align: left; text-wrap: nowrap; background-color: rgb(251, 251, 251);&quot;&gt;(*PublishingHouse&amp;nbsp;&lt;/span&gt;&lt;br style=&quot;padding: 0px; margin: 0px; font-size: 12px; text-align: left; text-wrap: nowrap; background-color: rgb(251, 251, 251);&quot;&gt;&lt;span style=&quot;font-size: 12px; text-align: left; text-wrap: nowrap; background-color: rgb(251, 251, 251);&quot;&gt;PotentialPartner)&lt;/span&gt;" style="ellipse;whiteSpace=wrap;html=1;fontFamily=Helvetica;fontSize=11;fontColor=default;labelBackgroundColor=default;" parent="1" vertex="1">
          <mxGeometry x="-400" y="200" width="130" height="110" as="geometry" />
        </mxCell>
        <mxCell id="v1l3gSPfmKun_IUH_ubJ-58" value="&lt;span style=&quot;font-size: 12px; text-align: left; text-wrap: nowrap; background-color: rgb(251, 251, 251);&quot;&gt;+AdmitAnnOffer(&lt;/span&gt;&lt;br style=&quot;font-size: 12px; text-align: left; text-wrap: nowrap; background-color: rgb(251, 251, 251); padding: 0px; margin: 0px;&quot;&gt;&lt;span style=&quot;font-size: 12px; text-align: left; text-wrap: nowrap; background-color: rgb(251, 251, 251);&quot;&gt;*Company, arr[*book]&lt;/span&gt;&lt;span style=&quot;font-size: 12px; text-align: left; text-wrap: nowrap; background-color: rgb(251, 251, 251);&quot;&gt;)&lt;/span&gt;&lt;div&gt;&lt;span style=&quot;font-size: 12px; text-align: left; text-wrap: nowrap; background-color: rgb(251, 251, 251);&quot;&gt;Принимает предложение&lt;/span&gt;&lt;/div&gt;&lt;div&gt;&lt;span style=&quot;font-size: 12px; text-align: left; text-wrap: nowrap; background-color: rgb(251, 251, 251);&quot;&gt;по передаче книг другой компании&lt;/span&gt;&lt;/div&gt;" style="ellipse;whiteSpace=wrap;html=1;fontFamily=Helvetica;fontSize=11;fontColor=default;labelBackgroundColor=default;" parent="1" vertex="1">
          <mxGeometry x="620" y="200" width="240" height="150" as="geometry" />
        </mxCell>
        <mxCell id="v1l3gSPfmKun_IUH_ubJ-60" value="&lt;span style=&quot;text-wrap: nowrap; font-size: 12px; text-align: left; background-color: rgb(251, 251, 251);&quot;&gt;+AdmitAnnOffer(&lt;/span&gt;&lt;span style=&quot;text-wrap: nowrap; font-size: 12px; text-align: left; background-color: rgb(251, 251, 251);&quot;&gt;)&lt;/span&gt;&lt;br&gt;&lt;div&gt;&lt;span style=&quot;text-wrap: nowrap; font-size: 12px; text-align: left; background-color: rgb(251, 251, 251);&quot;&gt;Принять предложение&lt;/span&gt;&lt;/div&gt;" style="ellipse;whiteSpace=wrap;html=1;fontFamily=Helvetica;fontSize=11;fontColor=default;labelBackgroundColor=default;" parent="1" vertex="1">
          <mxGeometry x="165" y="260" width="145" height="60" as="geometry" />
        </mxCell>
        <mxCell id="v1l3gSPfmKun_IUH_ubJ-76" value="&lt;span style=&quot;font-size: 12px; text-align: left; text-wrap: nowrap; background-color: rgb(251, 251, 251);&quot;&gt;+AdmitPartnerShip(*Author&amp;nbsp;&lt;/span&gt;&lt;br style=&quot;font-size: 12px; text-align: left; background-color: rgb(251, 251, 251);&quot;&gt;&lt;div style=&quot;font-size: 12px; text-align: left; background-color: rgb(251, 251, 251);&quot;&gt;&lt;span style=&quot;text-wrap: nowrap;&quot;&gt;PotentialPartner)&lt;/span&gt;&lt;/div&gt;&lt;div style=&quot;font-size: 12px; text-align: left; background-color: rgb(251, 251, 251);&quot;&gt;&lt;span style=&quot;text-wrap: nowrap;&quot;&gt;Стать партнером Автора&lt;/span&gt;&lt;/div&gt;" style="ellipse;whiteSpace=wrap;html=1;fontFamily=Helvetica;fontSize=11;fontColor=default;labelBackgroundColor=default;" parent="1" vertex="1">
          <mxGeometry x="-140" y="-80" width="200" height="140" as="geometry" />
        </mxCell>
        <mxCell id="v1l3gSPfmKun_IUH_ubJ-85" style="edgeStyle=none;shape=connector;rounded=0;orthogonalLoop=1;jettySize=auto;html=1;dashed=1;dashPattern=8 8;strokeColor=default;align=center;verticalAlign=middle;fontFamily=Helvetica;fontSize=11;fontColor=default;labelBackgroundColor=default;endArrow=openThin;endFill=0;" parent="1" source="v1l3gSPfmKun_IUH_ubJ-79" target="v1l3gSPfmKun_IUH_ubJ-76" edge="1">
          <mxGeometry relative="1" as="geometry" />
        </mxCell>
        <mxCell id="v1l3gSPfmKun_IUH_ubJ-79" value="&lt;div&gt;&lt;span style=&quot;font-size: 12px; text-align: left; text-wrap: nowrap; background-color: rgb(251, 251, 251);&quot;&gt;+OfferPartnership&lt;/span&gt;&lt;br style=&quot;padding: 0px; margin: 0px; font-size: 12px; text-align: left; text-wrap: nowrap; background-color: rgb(251, 251, 251);&quot;&gt;&lt;span style=&quot;font-size: 12px; text-align: left; text-wrap: nowrap; background-color: rgb(251, 251, 251);&quot;&gt;(*PublishingHouse&amp;nbsp;&lt;/span&gt;&lt;br style=&quot;padding: 0px; margin: 0px; font-size: 12px; text-align: left; text-wrap: nowrap; background-color: rgb(251, 251, 251);&quot;&gt;&lt;span style=&quot;font-size: 12px; text-align: left; text-wrap: nowrap; background-color: rgb(251, 251, 251);&quot;&gt;PotentialPartner)&lt;/span&gt;&lt;span style=&quot;font-size: 12px; text-align: left; text-wrap: nowrap; background-color: rgb(251, 251, 251);&quot;&gt;&lt;br&gt;&lt;/span&gt;&lt;/div&gt;&lt;div&gt;&lt;span style=&quot;font-size: 12px; text-align: left; text-wrap: nowrap; background-color: rgb(251, 251, 251);&quot;&gt;Предлагает сотрудничество&amp;nbsp;&lt;/span&gt;&lt;/div&gt;&lt;div&gt;&lt;span style=&quot;font-size: 12px; text-align: left; text-wrap: nowrap; background-color: rgb(251, 251, 251);&quot;&gt;Издательству&lt;/span&gt;&lt;/div&gt;" style="ellipse;whiteSpace=wrap;html=1;fontFamily=Helvetica;fontSize=11;fontColor=default;labelBackgroundColor=default;" parent="1" vertex="1">
          <mxGeometry x="-390" y="-80" width="190" height="180" as="geometry" />
        </mxCell>
        <mxCell id="v1l3gSPfmKun_IUH_ubJ-113" style="edgeStyle=none;shape=connector;rounded=0;orthogonalLoop=1;jettySize=auto;html=1;dashed=1;dashPattern=8 8;strokeColor=default;align=center;verticalAlign=middle;fontFamily=Helvetica;fontSize=11;fontColor=default;labelBackgroundColor=default;endArrow=openThin;endFill=0;" parent="1" source="v1l3gSPfmKun_IUH_ubJ-86" target="v1l3gSPfmKun_IUH_ubJ-110" edge="1">
          <mxGeometry relative="1" as="geometry" />
        </mxCell>
        <mxCell id="v1l3gSPfmKun_IUH_ubJ-114" value="Include" style="edgeLabel;html=1;align=center;verticalAlign=middle;resizable=0;points=[];fontFamily=Helvetica;fontSize=11;fontColor=default;labelBackgroundColor=default;" parent="v1l3gSPfmKun_IUH_ubJ-113" vertex="1" connectable="0">
          <mxGeometry x="0.0232" y="-2" relative="1" as="geometry">
            <mxPoint as="offset" />
          </mxGeometry>
        </mxCell>
        <mxCell id="v1l3gSPfmKun_IUH_ubJ-86" value="&lt;span style=&quot;font-size: 12px; text-align: left; text-wrap: nowrap; background-color: rgb(251, 251, 251);&quot;&gt;+GiveBook(&lt;/span&gt;&lt;span style=&quot;font-size: 12px; text-align: left; text-wrap: nowrap; background-color: rgb(251, 251, 251);&quot;&gt;Book, book])&lt;/span&gt;&lt;br&gt;&lt;div&gt;&lt;span style=&quot;font-size: 12px; text-align: left; text-wrap: nowrap; background-color: rgb(251, 251, 251);&quot;&gt;Выдает запрошенную книгу&lt;/span&gt;&lt;/div&gt;" style="ellipse;whiteSpace=wrap;html=1;fontFamily=Helvetica;fontSize=11;fontColor=default;labelBackgroundColor=default;" parent="1" vertex="1">
          <mxGeometry x="-60" y="540" width="190" height="110" as="geometry" />
        </mxCell>
        <mxCell id="v1l3gSPfmKun_IUH_ubJ-105" style="edgeStyle=none;shape=connector;rounded=0;orthogonalLoop=1;jettySize=auto;html=1;dashed=1;dashPattern=8 8;strokeColor=default;align=center;verticalAlign=middle;fontFamily=Helvetica;fontSize=11;fontColor=default;labelBackgroundColor=default;endArrow=openThin;endFill=0;" parent="1" source="v1l3gSPfmKun_IUH_ubJ-90" target="v1l3gSPfmKun_IUH_ubJ-58" edge="1">
          <mxGeometry relative="1" as="geometry" />
        </mxCell>
        <mxCell id="v1l3gSPfmKun_IUH_ubJ-106" value="Include" style="edgeLabel;html=1;align=center;verticalAlign=middle;resizable=0;points=[];fontFamily=Helvetica;fontSize=11;fontColor=default;labelBackgroundColor=default;" parent="v1l3gSPfmKun_IUH_ubJ-105" vertex="1" connectable="0">
          <mxGeometry x="0.0095" y="2" relative="1" as="geometry">
            <mxPoint as="offset" />
          </mxGeometry>
        </mxCell>
        <mxCell id="v1l3gSPfmKun_IUH_ubJ-90" value="&lt;span style=&quot;font-size: 12px; text-align: left; text-wrap: nowrap; background-color: rgb(251, 251, 251);&quot;&gt;+TransferBooks(&lt;/span&gt;&lt;br style=&quot;font-size: 12px; text-align: left; text-wrap: nowrap; background-color: rgb(251, 251, 251); padding: 0px; margin: 0px;&quot;&gt;&lt;span style=&quot;font-size: 12px; text-align: left; text-wrap: nowrap; background-color: rgb(251, 251, 251);&quot;&gt;*Company, arr[*book]&lt;/span&gt;&lt;span style=&quot;font-size: 12px; text-align: left; text-wrap: nowrap; background-color: rgb(251, 251, 251);&quot;&gt;)&lt;/span&gt;&lt;div&gt;&lt;span style=&quot;font-size: 12px; text-align: left; text-wrap: nowrap; background-color: rgb(251, 251, 251);&quot;&gt;Передает книги компании&lt;/span&gt;&lt;/div&gt;" style="ellipse;whiteSpace=wrap;html=1;fontFamily=Helvetica;fontSize=11;fontColor=default;labelBackgroundColor=default;" parent="1" vertex="1">
          <mxGeometry x="625" y="440" width="240" height="150" as="geometry" />
        </mxCell>
        <mxCell id="v1l3gSPfmKun_IUH_ubJ-110" value="&lt;span style=&quot;font-size: 12px; text-align: left; text-wrap: nowrap; background-color: rgb(251, 251, 251);&quot;&gt;+AdmitClientsRequest&lt;/span&gt;&lt;div style=&quot;font-size: 12px; text-align: left; background-color: rgb(251, 251, 251);&quot;&gt;&lt;span style=&quot;text-wrap: nowrap;&quot;&gt;(&lt;/span&gt;&lt;span style=&quot;text-wrap: nowrap;&quot;&gt;Book, book])&lt;/span&gt;&lt;/div&gt;" style="ellipse;whiteSpace=wrap;html=1;fontFamily=Helvetica;fontSize=11;fontColor=default;labelBackgroundColor=default;" parent="1" vertex="1">
          <mxGeometry x="-400" y="540" width="190" height="110" as="geometry" />
        </mxCell>
        <mxCell id="v1l3gSPfmKun_IUH_ubJ-121" style="edgeStyle=none;shape=connector;rounded=0;orthogonalLoop=1;jettySize=auto;html=1;dashed=1;dashPattern=8 8;strokeColor=default;align=center;verticalAlign=middle;fontFamily=Helvetica;fontSize=11;fontColor=default;labelBackgroundColor=default;endArrow=openThin;endFill=0;" parent="1" source="v1l3gSPfmKun_IUH_ubJ-119" target="v1l3gSPfmKun_IUH_ubJ-52" edge="1">
          <mxGeometry relative="1" as="geometry" />
        </mxCell>
        <mxCell id="v1l3gSPfmKun_IUH_ubJ-122" value="Include" style="edgeLabel;html=1;align=center;verticalAlign=middle;resizable=0;points=[];fontFamily=Helvetica;fontSize=11;fontColor=default;labelBackgroundColor=default;" parent="v1l3gSPfmKun_IUH_ubJ-121" vertex="1" connectable="0">
          <mxGeometry x="0.029" y="1" relative="1" as="geometry">
            <mxPoint as="offset" />
          </mxGeometry>
        </mxCell>
        <mxCell id="v1l3gSPfmKun_IUH_ubJ-119" value="&lt;span style=&quot;font-size: 12px; text-align: left; text-wrap: nowrap; background-color: rgb(251, 251, 251);&quot;&gt;+GainBooks(&lt;/span&gt;&lt;br style=&quot;font-size: 12px; text-align: left; text-wrap: nowrap; padding: 0px; margin: 0px; background-color: rgb(251, 251, 251);&quot;&gt;&lt;span style=&quot;font-size: 12px; text-align: left; text-wrap: nowrap; background-color: rgb(251, 251, 251);&quot;&gt;*Client, arr[*book])&lt;/span&gt;&lt;br&gt;&lt;div&gt;&lt;span style=&quot;font-size: 12px; text-align: left; text-wrap: nowrap; background-color: rgb(251, 251, 251);&quot;&gt;Получить запрошенные у клиента&lt;/span&gt;&lt;/div&gt;&lt;div&gt;&lt;span style=&quot;font-size: 12px; text-align: left; text-wrap: nowrap; background-color: rgb(251, 251, 251);&quot;&gt;Книги&lt;/span&gt;&lt;/div&gt;" style="ellipse;whiteSpace=wrap;html=1;fontFamily=Helvetica;fontSize=11;fontColor=default;labelBackgroundColor=default;" parent="1" vertex="1">
          <mxGeometry x="139" y="584" width="240" height="110" as="geometry" />
        </mxCell>
        <mxCell id="v1l3gSPfmKun_IUH_ubJ-124" value="&lt;span style=&quot;font-size: 12px; text-wrap: nowrap; background-color: rgb(251, 251, 251);&quot;&gt;ExtendTheContract(*Library LIB)&lt;/span&gt;&lt;div&gt;&lt;span style=&quot;font-size: 12px; text-wrap: nowrap; background-color: rgb(251, 251, 251);&quot;&gt;Продлевает контракт с&amp;nbsp;&lt;/span&gt;&lt;/div&gt;&lt;div&gt;&lt;span style=&quot;font-size: 12px; text-wrap: nowrap; background-color: rgb(251, 251, 251);&quot;&gt;выбранной библиотекой&lt;/span&gt;&lt;/div&gt;" style="ellipse;whiteSpace=wrap;html=1;fontFamily=Helvetica;fontSize=11;fontColor=default;labelBackgroundColor=default;" parent="1" vertex="1">
          <mxGeometry x="250" y="990" width="230" height="140" as="geometry" />
        </mxCell>
      </root>
    </mxGraphModel>
  </diagram>
</mxfile>
